<svg width="127" height="81" viewBox="0 0 127 81" fill="none" xmlns="http://www.w3.org/2000/svg">
<path d="M38.8953 80.836C31.4793 80.836 24.8733 79.18 19.0773 75.868C13.2993 72.538 8.78133 67.822 5.52333 61.72C2.28333 55.618 0.663328 48.526 0.663328 40.444C0.663328 32.344 2.27433 25.279 5.49633 19.249C8.73633 13.201 13.3443 8.548 19.3203 5.29C25.3143 2.014 32.3433 0.375995 40.4073 0.375995C47.4813 0.375995 53.6013 1.65399 58.7673 4.20999C63.9333 6.766 68.0733 10.375 71.1873 15.037C74.3193 19.699 76.4613 25.216 77.6133 31.588H52.4493C51.9093 29.23 51.0543 27.277 49.8843 25.729C48.7323 24.163 47.3103 23.002 45.6183 22.246C43.9443 21.49 42.0273 21.112 39.8673 21.112C37.0053 21.112 34.5303 21.805 32.4423 23.191C30.3723 24.577 28.7703 26.71 27.6363 29.59C26.5023 32.47 25.9353 36.088 25.9353 40.444C25.9353 44.854 26.5293 48.526 27.7173 51.46C28.9233 54.394 30.5883 56.572 32.7123 57.994C34.8543 59.398 37.3473 60.1 40.1913 60.1C42.2253 60.1 44.0703 59.74 45.7263 59.02C47.4003 58.3 48.8223 57.184 49.9923 55.672C51.1623 54.142 52.0083 52.198 52.5303 49.84H77.4243C76.4163 55.798 74.1573 61.126 70.6473 65.824C67.1373 70.522 62.6463 74.203 57.1743 76.867C51.7023 79.513 45.6093 80.836 38.8953 80.836ZM95.8265 46.6L85.1345 38.068L92.9105 28.24L80.0585 24.136L84.5945 11.392L96.2585 15.172V2.104H110.083V15.172L121.747 11.392L126.283 24.136L113.431 28.24L121.207 38.068L110.515 46.6L103.171 36.88L95.8265 46.6Z" fill="black"/>
</svg>
