<svg width="938" height="303" viewBox="0 0 938 303" fill="none" xmlns="http://www.w3.org/2000/svg">
<path d="M38.1097 199V88.6258H78.736V199H38.1097ZM2.69644 105.883V71.0091H114.149V105.883H2.69644ZM174.62 147.588C174.62 145.071 174.23 142.914 173.451 141.116C172.702 139.289 171.534 137.881 169.946 136.892C168.388 135.873 166.41 135.364 164.014 135.364C161.857 135.364 159.849 135.798 157.992 136.667C156.134 137.506 154.636 138.854 153.498 140.712C152.359 142.57 151.79 144.921 151.79 147.768H148.374V119.725H151.61C153.647 116.04 156.119 113.044 159.025 110.737C161.931 108.43 165.152 106.752 168.687 105.703C172.253 104.625 176.148 104.085 180.372 104.085C186.933 104.085 192.551 105.374 197.225 107.95C201.929 110.497 205.569 114.557 208.145 120.129C210.722 125.672 212.01 132.787 212.01 141.476V199H174.62V147.588ZM114.399 199V71.0091H151.79V199H114.399ZM264.723 201.157C253.997 201.157 244.709 199.24 236.86 195.405C229.04 191.54 223.033 185.982 218.838 178.732C214.674 171.481 212.592 162.898 212.592 152.981C212.592 143.244 214.689 134.69 218.883 127.32C223.078 119.949 229.085 114.242 236.905 110.197C244.754 106.123 253.967 104.085 264.543 104.085C274.7 104.085 283.643 105.973 291.373 109.748C299.132 113.493 305.169 118.946 309.484 126.106C313.798 133.237 315.955 141.716 315.955 151.543C315.955 152.921 315.895 154.479 315.775 156.217C315.656 157.924 315.476 159.842 315.236 161.969H235.062V142.555H285.396L280.182 145.611C280.182 141.895 279.583 138.81 278.385 136.353C277.186 133.866 275.404 132.008 273.037 130.78C270.67 129.522 267.719 128.893 264.184 128.893C260.349 128.893 257.218 129.627 254.791 131.095C252.364 132.563 250.567 134.795 249.398 137.791C248.23 140.757 247.645 144.562 247.645 149.206V161.969C247.645 165.025 248.29 167.706 249.578 170.013C250.866 172.29 252.843 174.073 255.51 175.361C258.176 176.62 261.487 177.249 265.442 177.249C268.108 177.249 270.43 176.964 272.408 176.395C274.385 175.796 276.018 174.912 277.306 173.743C278.624 172.575 279.628 171.107 280.317 169.339H314.158C312.48 176.11 309.364 181.878 304.81 186.641C300.256 191.405 294.548 195.015 287.687 197.472C280.856 199.929 273.202 201.157 264.723 201.157ZM408.53 202.056C396.186 202.056 385.191 199.3 375.544 193.787C365.926 188.244 358.406 180.395 352.983 170.238C347.591 160.081 344.894 148.277 344.894 134.825C344.894 121.343 347.576 109.583 352.938 99.5464C358.331 89.4797 366.001 81.7349 375.948 76.3121C385.925 70.8593 397.624 68.1329 411.047 68.1329C422.821 68.1329 433.008 70.2601 441.606 74.5144C450.205 78.7688 457.096 84.7759 462.279 92.5356C467.492 100.295 471.057 109.478 472.975 120.084H431.09C430.191 116.159 428.768 112.909 426.821 110.332C424.903 107.726 422.537 105.793 419.72 104.535C416.934 103.276 413.743 102.647 410.148 102.647C405.384 102.647 401.265 103.801 397.789 106.108C394.344 108.415 391.677 111.965 389.79 116.759C387.902 121.552 386.959 127.574 386.959 134.825C386.959 142.165 387.947 148.277 389.925 153.161C391.932 158.044 394.703 161.669 398.239 164.036C401.804 166.373 405.953 167.542 410.687 167.542C414.073 167.542 417.144 166.942 419.9 165.744C422.686 164.546 425.053 162.688 427.001 160.171C428.948 157.625 430.356 154.389 431.225 150.464H472.66C470.983 160.381 467.223 169.249 461.38 177.069C455.538 184.889 448.063 191.016 438.955 195.45C429.847 199.854 419.705 202.056 408.53 202.056ZM521.985 201.157C511.589 201.157 502.406 199.165 494.437 195.18C486.467 191.195 480.281 185.548 475.876 178.237C471.502 170.927 469.315 162.448 469.315 152.801C469.315 143.214 471.517 134.75 475.921 127.41C480.326 120.069 486.497 114.377 494.437 110.332C502.406 106.287 511.589 104.265 521.985 104.265C532.382 104.265 541.55 106.287 549.489 110.332C557.459 114.377 563.645 120.069 568.05 127.41C572.454 134.75 574.656 143.214 574.656 152.801C574.656 162.448 572.454 170.927 568.05 178.237C563.675 185.548 557.504 191.195 549.534 195.18C541.565 199.165 532.382 201.157 521.985 201.157ZM521.985 172.395C524.982 172.395 527.603 171.766 529.85 170.508C532.127 169.249 533.925 167.182 535.243 164.306C536.591 161.4 537.265 157.625 537.265 152.981C537.265 148.307 536.591 144.487 535.243 141.521C533.925 138.555 532.127 136.398 529.85 135.049C527.573 133.701 524.952 133.027 521.985 133.027C518.93 133.027 516.263 133.701 513.986 135.049C511.709 136.398 509.926 138.555 508.638 141.521C507.35 144.457 506.706 148.277 506.706 152.981C506.706 157.595 507.35 161.355 508.638 164.261C509.926 167.137 511.694 169.219 513.941 170.508C516.218 171.766 518.9 172.395 521.985 172.395ZM605.099 201.157C598.538 201.157 592.905 199.884 588.201 197.337C583.527 194.761 579.902 190.701 577.326 185.158C574.749 179.586 573.461 172.455 573.461 163.767V106.243H610.851V157.655C610.851 160.171 611.226 162.343 611.975 164.171C612.754 165.969 613.922 167.377 615.48 168.395C617.068 169.384 619.061 169.878 621.457 169.878C623.615 169.878 625.622 169.459 627.479 168.62C629.337 167.751 630.835 166.388 631.973 164.531C633.112 162.673 633.681 160.321 633.681 157.475H637.097V185.518H634.4C632.363 189.173 629.846 192.169 626.85 194.506C623.884 196.813 620.574 198.491 616.918 199.539C613.263 200.618 609.323 201.157 605.099 201.157ZM634.4 199V182.642H633.681V106.243H671.072V199H634.4ZM675.069 199V106.243H711.74V131.409H712.459V199H675.069ZM710.122 139.319C710.122 131.739 711.096 125.402 713.044 120.309C715.021 115.186 717.987 111.321 721.942 108.714C725.897 106.108 730.825 104.804 736.727 104.804C738.016 104.804 739.199 104.849 740.278 104.939C741.386 105.029 742.42 105.164 743.379 105.344V138.959C741.94 138.959 740.502 138.959 739.064 138.959C737.626 138.959 736.188 138.959 734.75 138.959C729.806 138.959 725.687 139.813 722.391 141.521C719.126 143.199 716.654 145.85 714.976 149.475C713.298 153.071 712.459 157.715 712.459 163.407H710.122V139.319ZM786.44 202.056C776.254 202.056 767.73 200.813 760.869 198.326C754.038 195.839 748.81 192.169 745.185 187.315C741.589 182.432 739.507 176.38 738.938 169.159H774.531C774.77 171.317 775.385 173.069 776.373 174.417C777.362 175.766 778.77 176.754 780.598 177.384C782.455 178.013 784.822 178.327 787.698 178.327C790.155 178.327 792.222 178.133 793.9 177.743C795.608 177.324 796.881 176.724 797.72 175.945C798.589 175.137 799.023 174.133 799.023 172.934C799.023 171.886 798.769 171.002 798.259 170.283C797.75 169.564 796.911 168.965 795.743 168.485C794.604 168.006 793.061 167.631 791.114 167.362L772.958 164.845C765.827 163.856 759.82 162.119 754.937 159.632C750.053 157.115 746.353 153.82 743.836 149.745C741.32 145.67 740.061 140.817 740.061 135.184C740.061 128.353 741.829 122.631 745.364 118.017C748.93 113.373 754.143 109.898 761.004 107.591C767.865 105.254 776.224 104.085 786.081 104.085C797.046 104.085 805.884 105.494 812.596 108.31C819.307 111.096 824.16 114.826 827.156 119.5C830.152 124.174 831.83 129.582 832.19 135.724H798.754C798.544 133.596 797.975 131.889 797.046 130.6C796.147 129.312 794.814 128.383 793.046 127.814C791.279 127.215 788.957 126.915 786.081 126.915C783.624 126.915 781.616 127.095 780.058 127.455C778.501 127.814 777.347 128.368 776.598 129.117C775.849 129.866 775.475 130.81 775.475 131.949C775.475 133.117 775.789 134.076 776.418 134.825C777.077 135.574 778.216 136.203 779.834 136.712C781.452 137.192 783.774 137.641 786.8 138.06L801.54 140.038C809.48 141.086 815.921 142.914 820.865 145.521C825.838 148.127 829.463 151.408 831.74 155.363C834.017 159.317 835.156 163.976 835.156 169.339C835.156 176.35 833.238 182.297 829.403 187.181C825.568 192.064 820.011 195.764 812.73 198.281C805.45 200.798 796.687 202.056 786.44 202.056ZM883.464 201.157C872.738 201.157 863.451 199.24 855.601 195.405C847.781 191.54 841.774 185.982 837.58 178.732C833.415 171.481 831.333 162.898 831.333 152.981C831.333 143.244 833.43 134.69 837.625 127.32C841.819 119.949 847.826 114.242 855.646 110.197C863.495 106.123 872.708 104.085 883.284 104.085C893.441 104.085 902.384 105.973 910.114 109.748C917.874 113.493 923.911 118.946 928.225 126.106C932.539 133.237 934.696 141.716 934.696 151.543C934.696 152.921 934.636 154.479 934.517 156.217C934.397 157.924 934.217 159.842 933.977 161.969H853.803V142.555H904.137L898.924 145.611C898.924 141.895 898.324 138.81 897.126 136.353C895.928 133.866 894.145 132.008 891.778 130.78C889.411 129.522 886.46 128.893 882.925 128.893C879.09 128.893 875.959 129.627 873.532 131.095C871.105 132.563 869.308 134.795 868.139 137.791C866.971 140.757 866.387 144.562 866.387 149.206V161.969C866.387 165.025 867.031 167.706 868.319 170.013C869.607 172.29 871.585 174.073 874.251 175.361C876.918 176.62 880.228 177.249 884.183 177.249C886.85 177.249 889.172 176.964 891.149 176.395C893.126 175.796 894.759 174.912 896.047 173.743C897.366 172.575 898.369 171.107 899.058 169.339H932.899C931.221 176.11 928.105 181.878 923.551 186.641C918.997 191.405 913.29 195.015 906.429 197.472C899.598 199.929 891.943 201.157 883.464 201.157Z" fill="white"/>
<path d="M137.267 278.168C134.043 278.168 131.43 277.814 129.429 277.107C127.428 276.388 125.948 275.261 124.989 273.727C124.03 272.181 123.551 270.156 123.551 267.651V252.3V245.217V238.278V229.416H135.739V238.278V245.217V252.3V265.512C135.739 266.411 135.889 267.1 136.188 267.58C136.488 268.047 136.931 268.365 137.518 268.532C138.118 268.688 138.939 268.766 139.981 268.766C140.305 268.766 140.664 268.766 141.06 268.766C141.467 268.766 141.899 268.766 142.354 268.766H142.893V277.88C142.809 277.892 142.72 277.898 142.624 277.898C142.528 277.91 142.438 277.922 142.354 277.934C141.515 278.006 140.664 278.06 139.801 278.096C138.951 278.144 138.106 278.168 137.267 278.168ZM117.655 249.909V240.777H129.699H142.893V249.909H129.699H117.655ZM168.153 256.111C168.153 254.84 167.943 253.768 167.524 252.893C167.116 252.018 166.499 251.353 165.672 250.898C164.857 250.442 163.844 250.214 162.634 250.214C161.52 250.214 160.465 250.466 159.47 250.969C158.488 251.473 157.685 252.252 157.061 253.306C156.45 254.349 156.145 255.661 156.145 257.243H153.718V247.41H155.39C156.157 245.804 157.133 244.444 158.32 243.33C159.518 242.215 160.89 241.37 162.436 240.795C163.982 240.208 165.684 239.914 167.542 239.914C170.202 239.914 172.479 240.423 174.373 241.442C176.278 242.461 177.746 244.037 178.777 246.17C179.807 248.303 180.323 250.987 180.323 254.223V277.88H168.153V256.111ZM143.957 277.88V226.684H156.145V277.88H143.957ZM201.249 278.743C197.246 278.743 193.753 277.97 190.769 276.424C187.796 274.866 185.502 272.631 183.884 269.719C182.278 266.807 181.475 263.373 181.475 259.418C181.475 255.547 182.278 252.138 183.884 249.19C185.49 246.242 187.773 243.959 190.733 242.341C193.705 240.723 197.18 239.914 201.159 239.914C205.066 239.914 208.487 240.705 211.423 242.287C214.359 243.857 216.63 246.086 218.236 248.974C219.842 251.862 220.645 255.236 220.645 259.095C220.645 259.574 220.627 260.101 220.591 260.677C220.567 261.252 220.519 261.881 220.447 262.564H188.504V255.571H211.208L208.835 256.938C208.823 255.176 208.517 253.666 207.918 252.408C207.331 251.137 206.456 250.161 205.293 249.477C204.143 248.794 202.723 248.453 201.033 248.453C199.319 248.453 197.869 248.812 196.683 249.531C195.508 250.238 194.609 251.317 193.986 252.767C193.375 254.217 193.064 256.045 193.052 258.25V261.863C193.052 263.697 193.375 265.255 194.022 266.537C194.669 267.819 195.622 268.796 196.88 269.467C198.139 270.126 199.667 270.456 201.464 270.456C202.723 270.456 203.825 270.288 204.772 269.952C205.731 269.617 206.528 269.137 207.163 268.514C207.798 267.879 208.277 267.1 208.601 266.177H219.854C219.207 268.79 218.033 271.037 216.331 272.918C214.641 274.8 212.508 276.244 209.931 277.251C207.367 278.245 204.472 278.743 201.249 278.743ZM258.445 277.88C258.349 277.64 258.265 277.395 258.193 277.143C258.121 276.879 258.049 276.616 257.977 276.352C257.857 275.873 257.75 275.381 257.654 274.878C257.57 274.375 257.504 273.877 257.456 273.386C257.408 272.895 257.384 272.445 257.384 272.038L257.168 271.786V257.585V255.428V252.084C257.168 251.245 256.983 250.562 256.611 250.035C256.24 249.495 255.652 249.1 254.849 248.848C254.058 248.585 253.028 248.453 251.757 248.453C250.415 248.453 249.331 248.597 248.504 248.884C247.677 249.172 247.042 249.663 246.598 250.358C246.167 251.041 245.909 251.988 245.825 253.199H233.655C233.787 250.298 234.488 247.872 235.759 245.918C237.029 243.953 238.988 242.461 241.637 241.442C244.285 240.423 247.707 239.914 251.901 239.914C255.952 239.914 259.266 240.369 261.842 241.28C264.419 242.191 266.306 243.503 267.505 245.217C268.703 246.919 269.302 248.992 269.302 251.437V271.121C269.302 271.78 269.344 272.499 269.428 273.278C269.524 274.057 269.662 274.848 269.842 275.651C270.021 276.454 270.231 277.197 270.471 277.88H258.445ZM245.43 278.976C242.745 278.976 240.391 278.563 238.365 277.736C236.34 276.897 234.758 275.633 233.619 273.943C232.493 272.253 231.93 270.18 231.93 267.723C231.93 265.554 232.403 263.679 233.35 262.097C234.297 260.515 235.807 259.227 237.88 258.232C239.965 257.225 242.673 256.554 246.005 256.219L252.315 255.589C253.441 255.482 254.352 255.302 255.047 255.05C255.754 254.786 256.282 254.421 256.629 253.954C256.989 253.474 257.168 252.851 257.168 252.084L258.66 255.212C258.553 256.926 258.337 258.238 258.013 259.149C257.702 260.047 257.192 260.719 256.485 261.162C255.79 261.593 254.772 261.893 253.429 262.061L249.385 262.564C248.174 262.708 247.198 262.96 246.455 263.319C245.711 263.679 245.172 264.146 244.837 264.721C244.501 265.297 244.333 265.998 244.333 266.825C244.333 267.723 244.525 268.484 244.909 269.108C245.304 269.719 245.897 270.186 246.688 270.51C247.479 270.821 248.456 270.977 249.618 270.977C251.092 270.977 252.399 270.707 253.537 270.168C254.676 269.617 255.562 268.79 256.198 267.687C256.845 266.573 257.168 265.195 257.168 263.553H259.074L259.11 268.406C258.798 270.612 258.067 272.505 256.917 274.087C255.778 275.669 254.238 276.879 252.297 277.718C250.355 278.557 248.066 278.976 245.43 278.976ZM272.192 277.88V240.777H284.092V250.574H284.38V277.88H272.192ZM283.014 254.457C283.014 251.653 283.433 249.184 284.272 247.051C285.123 244.905 286.417 243.228 288.155 242.017C289.893 240.807 292.062 240.202 294.662 240.202C295.106 240.202 295.525 240.22 295.921 240.256C296.328 240.28 296.724 240.322 297.107 240.381V251.419C296.616 251.419 296.13 251.419 295.651 251.419C295.172 251.419 294.704 251.419 294.249 251.419C292.116 251.419 290.318 251.784 288.856 252.515C287.394 253.234 286.279 254.349 285.512 255.859C284.757 257.357 284.38 259.257 284.38 261.558H283.014V254.457ZM314.574 278.743C310.608 278.743 307.15 277.946 304.202 276.352C301.266 274.758 299.001 272.499 297.407 269.575C295.825 266.651 295.034 263.235 295.034 259.328C295.034 255.422 295.831 252.006 297.425 249.082C299.019 246.158 301.302 243.899 304.274 242.305C307.246 240.711 310.745 239.914 314.772 239.914C318.463 239.914 321.675 240.561 324.407 241.856C327.152 243.138 329.303 244.917 330.861 247.194C332.419 249.471 333.33 252.078 333.593 255.014H321.405C321.13 253.756 320.68 252.719 320.057 251.904C319.434 251.089 318.661 250.49 317.738 250.107C316.815 249.723 315.761 249.531 314.574 249.531C312.992 249.531 311.662 249.885 310.584 250.592C309.505 251.287 308.69 252.36 308.139 253.81C307.588 255.26 307.312 257.099 307.312 259.328C307.312 261.617 307.588 263.487 308.139 264.937C308.69 266.375 309.499 267.436 310.566 268.119C311.632 268.79 312.951 269.126 314.52 269.126C315.767 269.126 316.863 268.922 317.81 268.514C318.757 268.095 319.542 267.442 320.165 266.555C320.8 265.668 321.244 264.53 321.495 263.139H333.575C333.24 266.231 332.263 268.958 330.645 271.319C329.039 273.668 326.864 275.495 324.12 276.801C321.375 278.096 318.194 278.743 314.574 278.743ZM358.785 256.111C358.785 254.84 358.576 253.768 358.156 252.893C357.749 252.018 357.132 251.353 356.305 250.898C355.49 250.442 354.477 250.214 353.267 250.214C352.152 250.214 351.097 250.466 350.103 250.969C349.12 251.473 348.317 252.252 347.694 253.306C347.083 254.349 346.777 255.661 346.777 257.243H344.35V247.41H346.022C346.789 245.804 347.766 244.444 348.952 243.33C350.151 242.215 351.523 241.37 353.069 240.795C354.615 240.208 356.317 239.914 358.174 239.914C360.835 239.914 363.112 240.423 365.005 241.442C366.911 242.461 368.379 244.037 369.409 246.17C370.44 248.303 370.955 250.987 370.955 254.223V277.88H358.785V256.111ZM334.589 277.88V226.684H346.777V277.88H334.589ZM373.617 277.88V240.777H385.805V277.88H373.617ZM373.617 237.379V227.492H385.805V237.379H373.617ZM405.731 278.168C402.507 278.168 399.895 277.814 397.893 277.107C395.892 276.388 394.412 275.261 393.453 273.727C392.494 272.181 392.015 270.156 392.015 267.651V252.3V245.217V238.278V229.416H404.203V238.278V245.217V252.3V265.512C404.203 266.411 404.353 267.1 404.652 267.58C404.952 268.047 405.395 268.365 405.983 268.532C406.582 268.688 407.403 268.766 408.445 268.766C408.769 268.766 409.128 268.766 409.524 268.766C409.931 268.766 410.363 268.766 410.818 268.766H411.357V277.88C411.274 277.892 411.184 277.898 411.088 277.898C410.992 277.91 410.902 277.922 410.818 277.934C409.979 278.006 409.128 278.06 408.266 278.096C407.415 278.144 406.57 278.168 405.731 278.168ZM386.119 249.909V240.777H398.163H411.357V249.909H398.163H386.119ZM429.983 278.743C425.98 278.743 422.486 277.97 419.502 276.424C416.53 274.866 414.235 272.631 412.617 269.719C411.012 266.807 410.209 263.373 410.209 259.418C410.209 255.547 411.012 252.138 412.617 249.19C414.223 246.242 416.506 243.959 419.466 242.341C422.438 240.723 425.914 239.914 429.893 239.914C433.799 239.914 437.221 240.705 440.157 242.287C443.093 243.857 445.364 246.086 446.97 248.974C448.576 251.862 449.379 255.236 449.379 259.095C449.379 259.574 449.361 260.101 449.325 260.677C449.301 261.252 449.253 261.881 449.181 262.564H417.237V255.571H439.941L437.569 256.938C437.557 255.176 437.251 253.666 436.652 252.408C436.064 251.137 435.19 250.161 434.027 249.477C432.877 248.794 431.457 248.453 429.767 248.453C428.053 248.453 426.603 248.812 425.417 249.531C424.242 250.238 423.343 251.317 422.72 252.767C422.109 254.217 421.797 256.045 421.785 258.25V261.863C421.785 263.697 422.109 265.255 422.756 266.537C423.403 267.819 424.356 268.796 425.614 269.467C426.873 270.126 428.401 270.456 430.198 270.456C431.457 270.456 432.559 270.288 433.506 269.952C434.465 269.617 435.262 269.137 435.897 268.514C436.532 267.879 437.011 267.1 437.335 266.177H448.588C447.941 268.79 446.766 271.037 445.065 272.918C443.375 274.8 441.242 276.244 438.665 277.251C436.1 278.245 433.206 278.743 429.983 278.743ZM468.496 278.743C464.529 278.743 461.072 277.946 458.124 276.352C455.188 274.758 452.923 272.499 451.329 269.575C449.747 266.651 448.956 263.235 448.956 259.328C448.956 255.422 449.753 252.006 451.347 249.082C452.941 246.158 455.224 243.899 458.196 242.305C461.168 240.711 464.667 239.914 468.694 239.914C472.385 239.914 475.597 240.561 478.329 241.856C481.073 243.138 483.225 244.917 484.783 247.194C486.341 249.471 487.251 252.078 487.515 255.014H475.327C475.051 253.756 474.602 252.719 473.979 251.904C473.356 251.089 472.583 250.49 471.66 250.107C470.737 249.723 469.683 249.531 468.496 249.531C466.914 249.531 465.584 249.885 464.505 250.592C463.427 251.287 462.612 252.36 462.061 253.81C461.509 255.26 461.234 257.099 461.234 259.328C461.234 261.617 461.509 263.487 462.061 264.937C462.612 266.375 463.421 267.436 464.487 268.119C465.554 268.79 466.872 269.126 468.442 269.126C469.689 269.126 470.785 268.922 471.732 268.514C472.679 268.095 473.464 267.442 474.087 266.555C474.722 265.668 475.165 264.53 475.417 263.139H487.497C487.161 266.231 486.185 268.958 484.567 271.319C482.961 273.668 480.786 275.495 478.041 276.801C475.297 278.096 472.115 278.743 468.496 278.743ZM504.418 278.168C501.194 278.168 498.581 277.814 496.58 277.107C494.579 276.388 493.099 275.261 492.14 273.727C491.181 272.181 490.702 270.156 490.702 267.651V252.3V245.217V238.278V229.416H502.89V238.278V245.217V252.3V265.512C502.89 266.411 503.04 267.1 503.339 267.58C503.639 268.047 504.082 268.365 504.669 268.532C505.269 268.688 506.089 268.766 507.132 268.766C507.456 268.766 507.815 268.766 508.211 268.766C508.618 268.766 509.05 268.766 509.505 268.766H510.044V277.88C509.96 277.892 509.87 277.898 509.775 277.898C509.679 277.91 509.589 277.922 509.505 277.934C508.666 278.006 507.815 278.06 506.952 278.096C506.101 278.144 505.257 278.168 504.418 278.168ZM484.806 249.909V240.777H496.85H510.044V249.909H496.85H484.806ZM523.889 278.743C521.24 278.743 518.963 278.233 517.058 277.215C515.164 276.196 513.696 274.62 512.654 272.487C511.623 270.354 511.108 267.669 511.108 264.434V240.777H523.296V262.546C523.296 263.817 523.499 264.889 523.907 265.764C524.326 266.639 524.943 267.304 525.758 267.759C526.573 268.215 527.586 268.442 528.796 268.442C529.923 268.442 530.977 268.191 531.96 267.687C532.955 267.184 533.758 266.411 534.369 265.368C534.992 264.314 535.304 262.996 535.304 261.414H537.713V271.247H536.185C535.418 272.841 534.429 274.201 533.218 275.327C532.008 276.454 530.612 277.305 529.03 277.88C527.46 278.455 525.746 278.743 523.889 278.743ZM535.591 277.88V270.42H535.304V240.777H547.474V277.88H535.591ZM550.136 277.88V240.777H562.036V250.574H562.324V277.88H550.136ZM560.958 254.457C560.958 251.653 561.377 249.184 562.216 247.051C563.067 244.905 564.361 243.228 566.099 242.017C567.836 240.807 570.006 240.202 572.606 240.202C573.05 240.202 573.469 240.22 573.864 240.256C574.272 240.28 574.667 240.322 575.051 240.381V251.419C574.56 251.419 574.074 251.419 573.595 251.419C573.115 251.419 572.648 251.419 572.193 251.419C570.059 251.419 568.262 251.784 566.8 252.515C565.338 253.234 564.223 254.349 563.456 255.859C562.701 257.357 562.324 259.257 562.324 261.558H560.958V254.457ZM592.752 278.743C588.749 278.743 585.256 277.97 582.272 276.424C579.3 274.866 577.005 272.631 575.387 269.719C573.781 266.807 572.978 263.373 572.978 259.418C572.978 255.547 573.781 252.138 575.387 249.19C576.993 246.242 579.276 243.959 582.236 242.341C585.208 240.723 588.683 239.914 592.662 239.914C596.569 239.914 599.99 240.705 602.926 242.287C605.863 243.857 608.134 246.086 609.739 248.974C611.345 251.862 612.148 255.236 612.148 259.095C612.148 259.574 612.13 260.101 612.094 260.677C612.07 261.252 612.022 261.881 611.951 262.564H580.007V255.571H602.711L600.338 256.938C600.326 255.176 600.02 253.666 599.421 252.408C598.834 251.137 597.959 250.161 596.797 249.477C595.646 248.794 594.226 248.453 592.536 248.453C590.822 248.453 589.372 248.812 588.186 249.531C587.011 250.238 586.113 251.317 585.489 252.767C584.878 254.217 584.567 256.045 584.555 258.25V261.863C584.555 263.697 584.878 265.255 585.525 266.537C586.173 267.819 587.125 268.796 588.384 269.467C589.642 270.126 591.17 270.456 592.968 270.456C594.226 270.456 595.328 270.288 596.275 269.952C597.234 269.617 598.031 269.137 598.666 268.514C599.301 267.879 599.781 267.1 600.104 266.177H611.357C610.71 268.79 609.536 271.037 607.834 272.918C606.144 274.8 604.011 276.244 601.434 277.251C598.87 278.245 595.976 278.743 592.752 278.743ZM625.159 277.88V226.684H637.346V277.88H625.159ZM639.961 277.88V240.777H652.149V277.88H639.961ZM639.961 237.379V227.492H652.149V237.379H639.961ZM678.132 278.743C674.837 278.743 672.11 277.898 669.953 276.208C667.796 274.518 666.208 272.223 665.189 269.323C664.183 266.423 663.679 263.091 663.679 259.328V259.185C663.679 255.458 664.189 252.15 665.207 249.262C666.226 246.374 667.814 244.097 669.971 242.431C672.14 240.753 674.861 239.914 678.132 239.914C681.392 239.914 684.226 240.711 686.635 242.305C689.056 243.899 690.913 246.158 692.208 249.082C693.514 252.006 694.167 255.422 694.167 259.328C694.167 263.235 693.514 266.651 692.208 269.575C690.913 272.499 689.056 274.758 686.635 276.352C684.226 277.946 681.392 278.743 678.132 278.743ZM654.763 277.88V226.684H666.951V249.981H665.729V268.532H666.556V277.88H654.763ZM674.16 269.108C675.777 269.108 677.162 268.724 678.312 267.957C679.475 267.178 680.361 266.046 680.973 264.56C681.596 263.074 681.907 261.282 681.907 259.185C681.907 257.087 681.602 255.32 680.991 253.882C680.379 252.432 679.493 251.341 678.33 250.61C677.18 249.867 675.789 249.495 674.16 249.495C672.53 249.495 671.14 249.873 669.989 250.628C668.839 251.383 667.958 252.491 667.347 253.954C666.747 255.404 666.448 257.177 666.448 259.275C666.448 261.372 666.747 263.157 667.347 264.631C667.958 266.094 668.839 267.208 669.989 267.975C671.14 268.73 672.53 269.108 674.16 269.108ZM695.266 277.88V240.777H707.166V250.574H707.454V277.88H695.266ZM706.088 254.457C706.088 251.653 706.507 249.184 707.346 247.051C708.197 244.905 709.491 243.228 711.229 242.017C712.967 240.807 715.136 240.202 717.736 240.202C718.18 240.202 718.599 240.22 718.995 240.256C719.402 240.28 719.798 240.322 720.181 240.381V251.419C719.69 251.419 719.204 251.419 718.725 251.419C718.246 251.419 717.778 251.419 717.323 251.419C715.19 251.419 713.392 251.784 711.93 252.515C710.468 253.234 709.353 254.349 708.586 255.859C707.831 257.357 707.454 259.257 707.454 261.558H706.088V254.457ZM743.775 277.88C743.68 277.64 743.596 277.395 743.524 277.143C743.452 276.879 743.38 276.616 743.308 276.352C743.188 275.873 743.08 275.381 742.985 274.878C742.901 274.375 742.835 273.877 742.787 273.386C742.739 272.895 742.715 272.445 742.715 272.038L742.499 271.786V257.585V255.428V252.084C742.499 251.245 742.313 250.562 741.942 250.035C741.57 249.495 740.983 249.1 740.18 248.848C739.389 248.585 738.359 248.453 737.088 248.453C735.746 248.453 734.662 248.597 733.835 248.884C733.008 249.172 732.373 249.663 731.929 250.358C731.498 251.041 731.24 251.988 731.156 253.199H718.986C719.118 250.298 719.819 247.872 721.089 245.918C722.36 243.953 724.319 242.461 726.968 241.442C729.616 240.423 733.038 239.914 737.232 239.914C741.283 239.914 744.596 240.369 747.173 241.28C749.75 242.191 751.637 243.503 752.836 245.217C754.034 246.919 754.633 248.992 754.633 251.437V271.121C754.633 271.78 754.675 272.499 754.759 273.278C754.855 274.057 754.993 274.848 755.172 275.651C755.352 276.454 755.562 277.197 755.802 277.88H743.775ZM730.761 278.976C728.076 278.976 725.721 278.563 723.696 277.736C721.671 276.897 720.089 275.633 718.95 273.943C717.824 272.253 717.261 270.18 717.261 267.723C717.261 265.554 717.734 263.679 718.681 262.097C719.627 260.515 721.137 259.227 723.211 258.232C725.296 257.225 728.004 256.554 731.336 256.219L737.646 255.589C738.772 255.482 739.683 255.302 740.378 255.05C741.085 254.786 741.612 254.421 741.96 253.954C742.319 253.474 742.499 252.851 742.499 252.084L743.991 255.212C743.883 256.926 743.668 258.238 743.344 259.149C743.032 260.047 742.523 260.719 741.816 261.162C741.121 261.593 740.102 261.893 738.76 262.061L734.715 262.564C733.505 262.708 732.528 262.96 731.785 263.319C731.042 263.679 730.503 264.146 730.167 264.721C729.832 265.297 729.664 265.998 729.664 266.825C729.664 267.723 729.856 268.484 730.239 269.108C730.635 269.719 731.228 270.186 732.019 270.51C732.81 270.821 733.787 270.977 734.949 270.977C736.423 270.977 737.729 270.707 738.868 270.168C740.006 269.617 740.893 268.79 741.528 267.687C742.176 266.573 742.499 265.195 742.499 263.553H744.405L744.441 268.406C744.129 270.612 743.398 272.505 742.248 274.087C741.109 275.669 739.569 276.879 737.628 277.718C735.686 278.557 733.397 278.976 730.761 278.976ZM757.523 277.88V240.777H769.423V250.574H769.711V277.88H757.523ZM768.345 254.457C768.345 251.653 768.764 249.184 769.603 247.051C770.454 244.905 771.748 243.228 773.486 242.017C775.223 240.807 777.393 240.202 779.993 240.202C780.437 240.202 780.856 240.22 781.251 240.256C781.659 240.28 782.054 240.322 782.438 240.381V251.419C781.947 251.419 781.461 251.419 780.982 251.419C780.502 251.419 780.035 251.419 779.58 251.419C777.446 251.419 775.649 251.784 774.187 252.515C772.725 253.234 771.61 254.349 770.843 255.859C770.088 257.357 769.711 259.257 769.711 261.558H768.345V254.457ZM783.165 283.489C784.339 283.489 785.37 283.489 786.257 283.489C787.156 283.489 787.958 283.489 788.666 283.489C789.708 283.489 790.583 283.333 791.29 283.021C791.997 282.722 792.566 282.278 792.998 281.691C793.429 281.104 793.777 280.361 794.04 279.462L795.425 274.95L795.694 281.242L780.45 240.777H793.483L798.912 259.059C799.463 260.988 799.997 263.068 800.512 265.297C801.027 267.514 801.513 269.785 801.968 272.11L800.009 272.128C800.632 269.371 801.201 266.944 801.716 264.847C802.232 262.738 802.735 260.82 803.226 259.095L808.511 240.777H821.149L806.606 280.487C805.395 283.77 804.101 286.263 802.723 287.965C801.357 289.678 799.589 290.895 797.42 291.614C795.263 292.333 792.345 292.692 788.666 292.692C787.719 292.692 786.826 292.68 785.987 292.656C785.16 292.632 784.219 292.597 783.165 292.549V283.489Z" fill="white"/>
</svg>
